<svg xmlns="http://www.w3.org/2000/svg" xmlns:xlink="http://www.w3.org/1999/xlink" version="1.1" width="1000" height="1000" viewBox="0 0 1000 1000" xml:space="preserve">
<desc>Created with Fabric.js 3.5.0</desc>
<defs>
</defs>
<rect x="0" y="0" width="100%" height="100%" fill="rgba(255,255,255,0)"/>
<g transform="matrix(38.5208 0 0 38.5208 500 499.9999)" id="162400">
<path style="stroke: none; stroke-width: 1; stroke-dasharray: none; stroke-linecap: butt; stroke-dashoffset: 0; stroke-linejoin: miter; stroke-miterlimit: 4; is-custom-font: none; font-file-url: none; fill: rgb(255,51,51); fill-rule: nonzero; opacity: 1;" vector-effect="non-scaling-stroke" transform=" translate(-12, -12.2)" d="M 8.8 8 C 8.4 7.6 8 6.9 8 6 s 0.4 -1.6 0.8 -2 L 7.2 2.7 C 6.4 3.6 6 4.8 6 6 s 0.4 2.4 1.2 3.3 L 8.8 8 z M 14 6 c 0 -1.1 -0.9 -2 -2 -2 s -2 0.9 -2 2 c 0 0.7 0.4 1.4 1 1.7 L 5 24 h 2.1 l 0 -0.1 l 4.9 -4.3 l 4.9 4.3 l 0 0.1 H 19 L 13 7.7 C 13.6 7.4 14 6.7 14 6 z M 8.6 19.9 l 0.9 -2.5 l 1 0.8 L 8.6 19.9 z M 15.4 19.9 l -5.1 -4.5 l 1.7 -4.7 L 15.4 19.9 z M 4 6 c 0 -1.5 0.6 -2.9 1.8 -4.4 L 4.2 0.4 C 2.7 2.2 2 4.1 2 6 s 0.7 3.8 2.2 5.6 l 1.5 -1.3 C 4.6 8.9 4 7.5 4 6 z M 16.8 9.3 C 17.6 8.4 18 7.2 18 6 c 0 -1.2 -0.4 -2.4 -1.2 -3.3 L 15.2 4 C 15.6 4.4 16 5.1 16 6 c 0 0.9 -0.4 1.6 -0.8 2 L 16.8 9.3 z M 19.8 0.4 l -1.5 1.3 C 19.4 3.1 20 4.5 20 6 c 0 1.5 -0.6 2.9 -1.8 4.4 l 1.5 1.3 C 21.3 9.8 22 7.9 22 6 C 22 4.1 21.3 2.2 19.8 0.4 z" stroke-linecap="round"/>
</g>
</svg>